# Blender v2.90.1 OBJ File: ''
# www.blender.org
mtllib m_tree2.mtl
o Cylinder
v 0.015674 4.246367 -0.253986
v 0.019167 5.007034 0.022685
v 0.028745 5.007034 0.026171
v 0.199847 4.246368 -0.186952
v 0.033842 5.007034 0.034998
v 0.292234 4.183041 -0.023413
v 0.032072 5.007034 0.045036
v 0.263809 4.246367 0.175798
v 0.024263 5.007034 0.051588
v 0.113670 4.246367 0.301780
v 0.014070 5.007034 0.051588
v -0.087932 4.183041 0.295584
v 0.006262 5.007034 0.045036
v -0.232462 4.246367 0.175798
v 0.004492 5.007034 0.034998
v -0.266496 4.246367 -0.017217
v 0.009589 5.007034 0.026171
v -0.174109 4.183041 -0.193148
v -0.005440 0.970557 -0.939428
v 0.637348 0.970557 -0.705472
v 0.979368 0.776480 -0.113076
v 0.860586 0.776480 0.560572
v 0.336580 0.970557 1.000265
v -0.353069 0.907231 0.994068
v -0.871465 0.776480 0.560572
v -0.990247 0.776480 -0.113076
v -0.653837 0.713153 -0.711668
v -1.162461 0.725147 -0.150182
v -0.862932 1.326613 -0.094124
v -0.569643 1.263287 -0.618026
v -0.766733 0.661821 -0.851516
v -0.002290 1.326613 -0.816288
v -0.006855 0.725147 -1.119851
v -1.023078 0.725147 0.640299
v -0.759126 1.326613 0.494589
v -0.413802 0.661821 1.150053
v -0.306797 1.263287 0.872648
v 0.394483 0.725147 1.156250
v 0.296607 1.326613 0.878845
v 1.009368 0.725147 0.640300
v 0.754545 1.326613 0.494589
v 1.143143 0.661821 -0.156378
v 0.858351 1.326613 -0.094124
v 0.747414 0.725147 -0.845319
v 0.559453 1.326613 -0.611830
v -0.470645 3.472862 -0.047718
v -0.162981 4.296458 0.010068
v -0.106769 4.233131 -0.103204
v -0.309076 3.409535 -0.343475
v 0.015024 4.296458 -0.139296
v 0.010725 3.472862 -0.451635
v -0.412585 3.472862 0.281558
v -0.141511 4.296458 0.131830
v -0.162062 3.409536 0.490282
v -0.052405 4.233131 0.205109
v 0.177903 3.472862 0.496478
v 0.076845 4.296458 0.211305
v 0.434034 3.472862 0.281558
v 0.171559 4.296458 0.131830
v 0.486486 3.409535 -0.053915
v 0.193029 4.296458 0.010068
v 0.324917 3.472862 -0.337279
v 0.131209 4.296458 -0.097008
v 0.005286 2.622699 -0.671042
v 0.010529 3.525409 -0.315061
v 0.242392 3.525409 -0.230669
v 0.463775 2.622699 -0.504165
v 0.365764 3.525409 -0.016983
v 0.702124 2.559372 -0.087815
v 0.322917 3.525409 0.226012
v 0.623007 2.622699 0.398883
v 0.133901 3.525409 0.384616
v 0.249243 2.622699 0.712509
v -0.118452 3.462083 0.378420
v -0.244281 2.559373 0.706312
v -0.301860 3.525409 0.226012
v -0.612436 2.622699 0.398883
v -0.344706 3.525409 -0.016983
v -0.697161 2.622699 -0.081619
v -0.458813 2.559373 -0.510362
v -0.226943 3.462082 -0.236866
v -0.864248 1.858844 -0.105654
v -0.545192 2.674761 -0.046827
v -0.359524 2.611434 -0.384325
v -0.569569 1.795518 -0.631965
v 0.005569 2.674761 -0.508971
v 0.000399 1.858844 -0.831178
v -0.759959 1.858845 0.485799
v -0.478762 2.674761 0.329916
v -0.305499 1.795518 0.865646
v -0.191317 2.611434 0.569622
v 0.300687 1.858845 0.871843
v 0.196847 2.674761 0.575818
v 0.760756 1.858844 0.485799
v 0.489901 2.674761 0.329917
v 0.859436 1.795518 -0.111850
v 0.556331 2.674761 -0.046827
v 0.564756 1.858845 -0.625769
v 0.365054 2.674761 -0.378129
v -0.003388 1.267059 -0.997131
v 0.001149 1.916518 -0.681816
v 0.474390 1.916519 -0.509570
v 0.669916 1.267060 -0.752068
v 0.726197 1.916518 -0.073428
v 1.022565 1.203733 -0.137744
v 0.638746 1.916519 0.422534
v 0.903752 1.267060 0.574081
v 0.252955 1.916519 0.746250
v 0.354870 1.267060 1.034648
v -0.256267 1.853192 0.740054
v -0.367254 1.203733 1.028452
v -0.636448 1.916519 0.422534
v -0.910528 1.267060 0.574081
v -0.723899 1.916518 -0.073428
v -1.034949 1.267059 -0.131548
v -0.682301 1.203733 -0.758265
v -0.477702 1.853192 -0.515766
v -0.018886 0.465610 -0.264436
v -0.018886 1.059839 -0.373037
v 0.231064 1.059839 -0.282063
v 0.161257 0.465610 -0.198870
v 0.364060 1.059839 -0.051708
v 0.257109 0.465610 -0.032850
v 0.317871 1.059839 0.210242
v 0.223820 0.465610 0.155942
v 0.114110 1.059839 0.381218
v 0.076966 0.465610 0.279167
v -0.151881 1.059839 0.381218
v -0.114738 0.465610 0.279166
v -0.355642 1.059839 0.210242
v -0.261591 0.465610 0.155942
v -0.401831 1.059839 -0.051708
v -0.294880 0.465610 -0.032850
v -0.268836 1.059839 -0.282063
v -0.199028 0.465610 -0.198870
v -0.018886 -0.115607 -0.373037
v 0.231064 -0.115607 -0.282063
v 0.364060 -0.115607 -0.051708
v 0.317871 -0.115607 0.210242
v 0.114110 -0.115607 0.381218
v -0.151881 -0.115607 0.381218
v -0.355642 -0.115607 0.210242
v -0.401831 -0.115607 -0.051708
v -0.268836 -0.115607 -0.282063
vn 0.3238 0.3221 -0.8896
vn 0.8751 0.3014 -0.3786
vn 0.8292 0.3156 -0.4613
vn 0.8755 0.3013 -0.3779
vn 0.9389 0.3111 0.1474
vn 0.9541 0.2964 0.0429
vn 0.9542 0.2962 0.0420
vn 0.6108 0.3112 0.7280
vn 0.6109 0.3112 0.7280
vn -0.1211 0.2958 0.9475
vn -0.0176 0.3103 0.9505
vn -0.1220 0.2957 0.9475
vn -0.5989 0.3144 0.7365
vn -0.5277 0.3007 0.7944
vn -0.5271 0.3006 0.7949
vn -0.9327 0.3210 0.1645
vn -0.9327 0.3210 0.1644
vn 0.0000 1.0000 -0.0000
vn -0.3321 0.3237 -0.8860
vn -0.3833 0.3165 -0.8677
vn -0.3837 0.3165 -0.8675
vn -0.7885 0.3163 -0.5274
vn -0.8150 0.3232 -0.4809
vn -0.7883 0.3162 -0.5278
vn 0.0527 -0.9973 0.0520
vn 0.0902 -0.9956 -0.0271
vn -0.0956 -0.9908 -0.0962
vn -0.7667 0.4307 -0.4761
vn -0.7667 0.4310 -0.4758
vn -0.7670 0.4346 -0.4720
vn -0.3357 0.4303 -0.8379
vn -0.3360 0.4300 -0.8380
vn -0.3319 0.4339 -0.8376
vn -0.8898 0.4285 0.1569
vn -0.5510 0.4228 0.7195
vn -0.5509 0.4225 0.7197
vn -0.5534 0.4280 0.7146
vn -0.0461 0.4181 0.9072
vn -0.0456 0.4186 0.9070
vn -0.0402 0.4244 0.9046
vn 0.5844 0.4163 0.6965
vn 0.9072 0.3971 0.1387
vn 0.9071 0.3973 0.1388
vn 0.9163 0.3810 0.1236
vn 0.8015 0.4035 -0.4414
vn 0.8014 0.4036 -0.4415
vn 0.8138 0.3891 -0.4317
vn 0.3093 0.4266 -0.8499
vn -0.7892 0.3404 -0.5112
vn -0.7683 0.3276 -0.5499
vn -0.7919 0.3421 -0.5058
vn -0.4089 0.3272 -0.8519
vn -0.3669 0.3401 -0.8659
vn -0.3611 0.3418 -0.8676
vn -0.9279 0.3351 0.1636
vn -0.4821 0.3107 0.8192
vn -0.5433 0.3348 0.7699
vn -0.5507 0.3376 0.7634
vn -0.0910 0.3322 0.9388
vn -0.1706 0.3071 0.9363
vn -0.0796 0.3356 0.9386
vn 0.6078 0.3254 0.7244
vn 0.9350 0.3223 0.1478
vn 0.9463 0.3087 0.0964
vn 0.9474 0.3070 0.0902
vn 0.8507 0.3140 -0.4216
vn 0.8257 0.3263 -0.4602
vn 0.8536 0.3125 -0.4169
vn 0.3224 0.3342 -0.8857
vn 0.3209 0.3458 -0.8817
vn 0.8372 0.3273 -0.4381
vn 0.8218 0.3371 -0.4593
vn 0.8413 0.3246 -0.4322
vn 0.9309 0.3337 0.1484
vn 0.9390 0.3226 0.1194
vn 0.9410 0.3195 0.1114
vn 0.6047 0.3390 0.7207
vn -0.0648 0.3444 0.9366
vn -0.0921 0.3331 0.9384
vn -0.0564 0.3478 0.9359
vn -0.5407 0.3370 0.7707
vn -0.5590 0.3474 0.7529
vn -0.5641 0.3502 0.7477
vn -0.9230 0.3487 0.1627
vn -0.3680 0.3448 -0.8635
vn -0.3532 0.3509 -0.8673
vn -0.3488 0.3527 -0.8683
vn -0.7926 0.3519 -0.4980
vn -0.7864 0.3458 -0.5119
vn -0.7944 0.3537 -0.4938
vn -0.7962 0.3517 -0.4924
vn -0.7946 0.3489 -0.4968
vn -0.7974 0.3537 -0.4890
vn -0.3516 0.3479 -0.8691
vn -0.3470 0.3506 -0.8699
vn -0.3434 0.3526 -0.8705
vn -0.9228 0.3491 0.1627
vn -0.5630 0.3416 0.7526
vn -0.5681 0.3461 0.7466
vn -0.5718 0.3493 0.7423
vn -0.0523 0.3425 0.9381
vn -0.0607 0.3376 0.9393
vn -0.0458 0.3464 0.9370
vn 0.6048 0.3385 0.7208
vn 0.9323 0.3301 0.1478
vn 0.9376 0.3214 0.1325
vn 0.9411 0.3154 0.1220
vn 0.8321 0.3267 -0.4483
vn 0.8230 0.3343 -0.4592
vn 0.8380 0.3215 -0.4409
vn 0.3209 0.3461 -0.8816
vn 0.3114 0.4133 -0.8557
vn 0.8085 0.3903 -0.4405
vn 0.8047 0.3942 -0.4440
vn 0.8188 0.3793 -0.4309
vn 0.9108 0.3884 0.1398
vn 0.9133 0.3842 0.1349
vn 0.9204 0.3718 0.1206
vn 0.5881 0.4035 0.7009
vn -0.0506 0.4058 0.9125
vn -0.0523 0.4044 0.9131
vn -0.0439 0.4117 0.9103
vn -0.5506 0.4084 0.7281
vn -0.5515 0.4099 0.7265
vn -0.5547 0.4150 0.7211
vn -0.8960 0.4150 0.1580
vn -0.3414 0.4160 -0.8429
vn -0.3402 0.4169 -0.8429
vn -0.3358 0.4205 -0.8429
vn -0.7709 0.4176 -0.4810
vn -0.7707 0.4166 -0.4822
vn -0.7716 0.4211 -0.4767
vn 0.1976 -0.8449 0.4971
vn 0.1723 -0.8739 0.4545
vn 0.2362 -0.7935 0.5608
vn 0.4213 -0.8671 0.2660
vn 0.4542 -0.8406 0.2951
vn 0.5115 -0.7864 0.3463
vn 0.4511 -0.8889 -0.0795
vn 0.0287 -0.8331 -0.5523
vn 0.0410 -0.7918 -0.6093
vn 0.0601 -0.7179 -0.6935
vn 0.3501 -0.7969 -0.4923
vn 0.3187 -0.8437 -0.4320
vn 0.3855 -0.7318 -0.5620
vn -0.3049 -0.8804 -0.3633
vn -0.6514 -0.7571 0.0494
vn -0.6106 -0.7916 0.0215
vn -0.4465 -0.8913 -0.0787
vn -0.6167 -0.7704 0.1620
vn -0.6230 -0.7571 0.1964
vn -0.6421 -0.6711 0.3707
vn -0.1439 -0.9072 0.3954
vn -0.1295 -0.9255 0.3559
vn -0.5099 -0.8472 0.1488
vn -0.5582 -0.7902 0.2529
vn -0.5938 -0.7279 0.3428
vn -0.6300 -0.7765 0.0074
vn -0.5134 -0.8575 -0.0335
vn -0.3976 -0.9149 -0.0701
vn -0.2691 -0.9081 -0.3207
vn 0.2105 -0.8683 -0.4491
vn 0.1871 -0.9027 -0.3873
vn 0.2240 -0.8452 -0.4852
vn 0.1056 -0.9009 -0.4211
vn 0.1263 -0.8681 -0.4801
vn 0.1400 -0.8433 -0.5188
vn 0.3987 -0.9144 -0.0703
vn 0.2872 -0.9185 0.2718
vn 0.3209 -0.8949 0.3102
vn 0.3447 -0.8759 0.3375
vn 0.2474 -0.8956 0.3698
vn 0.2138 -0.9202 0.3279
vn 0.2693 -0.8775 0.3969
vn 0.2303 -0.9285 0.2914
vn 0.1983 -0.9460 0.2563
vn 0.2447 -0.9196 0.3072
vn 0.2185 -0.9456 0.2409
vn 0.2466 -0.9286 0.2773
vn 0.2602 -0.9194 0.2949
vn 0.3356 -0.9401 -0.0592
vn 0.1106 -0.9359 -0.3345
vn 0.1315 -0.9137 -0.3846
vn 0.1411 -0.9022 -0.4076
vn 0.1466 -0.9133 -0.3799
vn 0.1297 -0.9364 -0.3261
vn 0.1536 -0.9024 -0.4026
vn -0.2263 -0.9360 -0.2697
vn -0.5750 -0.8181 -0.0096
vn -0.4250 -0.9042 -0.0420
vn -0.3368 -0.9397 -0.0594
vn -0.4193 -0.8985 0.1298
vn -0.4988 -0.8301 0.2492
vn -0.5353 -0.7861 0.3090
vn -0.1107 -0.9462 0.3041
vn -0.1302 -0.9247 0.3577
vn -0.4441 -0.8812 0.1619
vn -0.5499 -0.7816 0.2946
vn -0.5790 -0.7437 0.3343
vn -0.6439 -0.7641 -0.0390
vn -0.4651 -0.8830 -0.0623
vn -0.3965 -0.9154 -0.0699
vn -0.2660 -0.9104 -0.3170
vn 0.1127 -0.8920 -0.4378
vn 0.1019 -0.9146 -0.3914
vn 0.1156 -0.8853 -0.4505
vn 0.1735 -0.9151 -0.3640
vn 0.1944 -0.8935 -0.4049
vn 0.2005 -0.8866 -0.4169
vn 0.3927 -0.9170 -0.0692
vn 0.2125 -0.9282 0.3054
vn 0.2341 -0.9114 0.3385
vn 0.2407 -0.9059 0.3486
vn 0.2949 -0.9103 0.2905
vn 0.2653 -0.9276 0.2629
vn 0.3034 -0.9049 0.2984
vn 0.2569 -0.9328 0.2529
vn 0.2303 -0.9461 0.2276
vn 0.2648 -0.9285 0.2605
vn 0.1839 -0.9465 0.2653
vn 0.2039 -0.9334 0.2953
vn 0.2102 -0.9290 0.3047
vn 0.3381 -0.9392 -0.0596
vn 0.1482 -0.9386 -0.3115
vn 0.1665 -0.9225 -0.3483
vn 0.1720 -0.9172 -0.3595
vn 0.0973 -0.9215 -0.3760
vn 0.0873 -0.9383 -0.3346
vn 0.1001 -0.9163 -0.3877
vn -0.2282 -0.9348 -0.2720
vn -0.5720 -0.8196 -0.0342
vn -0.4037 -0.9133 -0.0540
vn -0.3421 -0.9377 -0.0603
vn -0.3866 -0.9113 0.1414
vn -0.4898 -0.8312 0.2630
vn -0.5192 -0.8003 0.2998
vn -0.1133 -0.9435 0.3114
vn -0.2817 -0.5673 0.7738
vn -0.7595 -0.5864 0.2817
vn -0.5850 -0.7748 0.2396
vn -0.8004 -0.5244 0.2903
vn -0.5494 -0.8348 -0.0350
vn -0.3573 -0.9327 -0.0493
vn -0.3002 -0.9524 -0.0529
vn -0.2984 -0.9023 -0.3112
vn -0.6065 -0.5963 -0.5259
vn -0.6561 -0.5090 -0.5572
vn 0.0542 -0.5309 -0.8457
vn 0.0505 -0.5406 -0.8397
vn 0.0559 -0.5261 -0.8486
vn 0.5626 -0.6120 -0.5558
vn 0.2562 -0.8920 -0.3724
vn 0.6202 -0.5243 -0.5835
vn 0.2956 -0.9539 -0.0521
vn 0.2273 -0.9150 0.3333
vn 0.4285 -0.6159 0.6611
vn 0.4603 -0.5276 0.7140
vn 0.2254 -0.9481 0.2244
vn 0.1986 -0.9594 0.2004
vn 0.2320 -0.9450 0.2304
vn 0.8212 0.3176 -0.4742
vn 0.9352 0.3133 0.1649
vn 0.0000 0.3124 0.9499
vn -0.6098 0.3163 0.7267
vn 0.0000 1.0000 -0.0001
vn -0.3235 0.3247 -0.8888
vn -0.8192 0.3243 -0.4730
vn 0.4476 -0.8275 0.3391
vn 0.2554 -0.9653 0.0540
vn 0.1381 -0.9148 -0.3795
vn -0.0859 -0.9945 0.0594
vn 0.0761 -0.8755 0.4771
vn 0.2833 -0.9577 -0.0500
vn -0.7663 0.4264 -0.4805
vn -0.3405 0.4257 -0.8384
vn -0.5481 0.4163 0.7255
vn -0.0525 0.4112 0.9100
vn 0.8949 0.4174 0.1578
vn 0.7854 0.4214 -0.4534
vn -0.7627 0.3242 -0.5597
vn -0.4196 0.3238 -0.8480
vn -0.4665 0.3045 0.8304
vn -0.1918 0.3000 0.9345
vn 0.9308 0.3265 0.1641
vn 0.8175 0.3300 -0.4720
vn 0.8138 0.3419 -0.4699
vn 0.9264 0.3392 0.1634
vn -0.1053 0.3276 0.9389
vn -0.5323 0.3322 0.7786
vn -0.3749 0.3420 -0.8617
vn -0.7834 0.3430 -0.5183
vn -0.7930 0.3462 -0.5012
vn -0.3563 0.3451 -0.8683
vn -0.5580 0.3372 0.7582
vn -0.0692 0.3324 0.9406
vn 0.9266 0.3388 0.1634
vn 0.8139 0.3418 -0.4699
vn 0.7905 0.4084 -0.4564
vn 0.9006 0.4045 0.1588
vn -0.0605 0.3972 0.9158
vn -0.5465 0.4021 0.7346
vn -0.3467 0.4116 -0.8428
vn -0.7697 0.4123 -0.4874
vn 0.1401 -0.9059 0.3996
vn 0.3722 -0.9010 0.2231
vn 0.0137 -0.8771 -0.4802
vn 0.2883 -0.8812 -0.3747
vn -0.7320 -0.6725 0.1093
vn -0.5794 -0.8150 0.0117
vn -0.4691 -0.8803 0.0708
vn -0.6875 -0.7256 0.0295
vn 0.1771 -0.9156 -0.3610
vn 0.0957 -0.9148 -0.3924
vn 0.2690 -0.9298 0.2510
vn 0.1971 -0.9311 0.3070
vn 0.1878 -0.9512 0.2449
vn 0.2088 -0.9509 0.2283
vn 0.1040 -0.9422 -0.3186
vn 0.1248 -0.9423 -0.3105
vn -0.6204 -0.7843 0.0012
vn -0.3836 -0.9201 0.0796
vn -0.4135 -0.9017 0.1260
vn -0.6772 -0.7350 -0.0339
vn 0.0999 -0.9185 -0.3826
vn 0.1693 -0.9191 -0.3557
vn 0.2077 -0.9316 0.2982
vn 0.2592 -0.9310 0.2571
vn 0.2248 -0.9487 0.2223
vn 0.1796 -0.9491 0.2588
vn 0.1444 -0.9417 -0.3039
vn 0.0853 -0.9413 -0.3267
vn -0.6039 -0.7965 -0.0299
vn -0.3591 -0.9267 0.1106
vn -0.5190 -0.8253 0.2223
vn -0.5790 -0.8147 -0.0325
vn -0.2001 -0.9503 -0.2385
vn 0.0491 -0.5444 -0.8374
vn 0.1576 -0.9392 -0.3050
vn 0.1593 -0.9614 0.2243
vn 0.1940 -0.9612 0.1962
vn 0.3371 -0.1693 -0.9261
vn 0.8535 -0.1693 -0.4928
vn 0.9706 -0.1693 0.1711
vn 0.6335 -0.1693 0.7550
vn -0.0000 -0.1693 0.9856
vn -0.6335 -0.1693 0.7550
vn -0.9706 -0.1693 0.1711
vn -0.3371 -0.1693 -0.9261
vn -0.8535 -0.1693 -0.4928
vn -0.0000 -1.0000 -0.0000
vn -0.8530 0.1729 -0.4925
vn -0.3369 0.1729 -0.9255
vn -0.9700 0.1729 0.1710
vn -0.6331 0.1729 0.7545
vn -0.0000 0.1729 0.9849
vn 0.6331 0.1729 0.7545
vn 0.9700 0.1729 0.1710
vn 0.8530 0.1729 -0.4925
vn 0.3369 0.1729 -0.9255
usemtl Leaves
s 1
f 2//1 4//1 1//1
f 4//2 5//3 6//4
f 5//5 8//6 6//7
f 7//8 10//9 8//9
f 10//10 11//11 12//12
f 11//13 14//14 12//15
f 14//16 15//17 16//16
f 9//18 7//18 2//18
f 17//19 1//20 18//21
f 16//22 17//23 18//24
f 24//25 19//26 21//27
f 28//28 30//29 31//30
f 30//31 33//32 31//33
f 34//34 29//34 28//34
f 37//35 34//36 36//37
f 38//38 37//39 36//40
f 40//41 39//41 38//41
f 43//42 40//43 42//44
f 44//45 43//46 42//47
f 32//48 44//48 33//48
f 46//49 48//50 49//51
f 48//52 51//53 49//54
f 52//55 47//55 46//55
f 55//56 52//57 54//58
f 56//59 55//60 54//61
f 58//62 57//62 56//62
f 61//63 58//64 60//65
f 62//66 61//67 60//68
f 50//69 62//69 51//69
f 65//70 67//70 64//70
f 67//71 68//72 69//73
f 68//74 71//75 69//76
f 71//77 72//77 73//77
f 73//78 74//79 75//80
f 74//81 77//82 75//83
f 77//84 78//84 79//84
f 81//85 64//86 80//87
f 79//88 81//89 80//90
f 82//91 84//92 85//93
f 84//94 87//95 85//96
f 88//97 83//97 82//97
f 91//98 88//99 90//100
f 92//101 91//102 90//103
f 94//104 93//104 92//104
f 97//105 94//106 96//107
f 98//108 97//109 96//110
f 86//111 98//111 87//111
f 101//112 103//112 100//112
f 103//113 104//114 105//115
f 104//116 107//117 105//118
f 107//119 108//119 109//119
f 109//120 110//121 111//122
f 110//123 113//124 111//125
f 113//126 114//126 115//126
f 117//127 100//128 116//129
f 115//130 117//131 116//132
f 16//133 48//134 47//135
f 48//136 1//137 50//138
f 14//139 47//139 53//139
f 55//140 14//141 53//142
f 10//143 55//144 57//145
f 59//146 10//146 57//146
f 61//147 8//148 59//149
f 63//150 6//151 61//152
f 50//153 4//153 63//153
f 65//154 62//154 66//154
f 66//155 60//156 68//157
f 68//158 58//159 70//160
f 70//161 56//161 72//161
f 56//162 74//163 72//164
f 74//165 52//166 76//167
f 52//168 78//168 76//168
f 81//169 51//170 65//171
f 46//172 81//173 78//174
f 79//175 84//176 83//177
f 84//178 64//179 86//180
f 77//181 83//181 89//181
f 91//182 77//183 89//184
f 73//185 91//186 93//187
f 95//188 73//188 93//188
f 97//189 71//190 95//191
f 99//192 69//193 97//194
f 86//195 67//195 99//195
f 101//196 98//196 102//196
f 102//197 96//198 104//199
f 104//200 94//201 106//202
f 106//203 92//203 108//203
f 92//204 110//205 108//206
f 110//207 88//208 112//209
f 88//210 114//210 112//210
f 117//211 87//212 101//213
f 82//214 117//215 114//216
f 115//217 30//218 29//219
f 30//220 100//221 32//222
f 113//223 29//223 35//223
f 37//224 113//225 35//226
f 109//227 37//228 39//229
f 41//230 109//230 39//230
f 43//231 107//232 41//233
f 45//234 105//235 43//236
f 32//237 103//237 45//237
f 19//238 44//238 20//238
f 44//239 21//240 20//241
f 21//242 40//243 22//244
f 22//245 38//246 23//247
f 38//248 24//249 23//250
f 36//251 25//252 24//253
f 34//254 26//254 25//254
f 27//255 33//256 19//257
f 28//258 27//259 26//260
f 2//1 3//1 4//1
f 4//2 3//261 5//3
f 5//5 7//262 8//6
f 7//8 9//8 10//9
f 10//10 9//263 11//11
f 11//13 13//264 14//14
f 14//16 13//17 15//17
f 5//18 3//265 7//18
f 3//265 2//18 7//18
f 2//18 17//18 11//18
f 17//18 15//18 11//18
f 15//18 13//265 11//18
f 11//18 9//18 2//18
f 17//19 2//266 1//20
f 16//22 15//267 17//23
f 27//268 19//26 26//269
f 19//26 20//270 21//27
f 26//269 19//26 24//25
f 21//27 22//271 24//25
f 22//271 23//272 24//25
f 24//25 25//273 26//269
f 28//28 29//274 30//29
f 30//31 32//275 33//32
f 34//34 35//34 29//34
f 37//35 35//276 34//36
f 38//38 39//277 37//39
f 40//41 41//41 39//41
f 43//42 41//278 40//43
f 44//45 45//279 43//46
f 32//48 45//48 44//48
f 46//49 47//280 48//50
f 48//52 50//281 51//53
f 52//55 53//55 47//55
f 55//56 53//282 52//57
f 56//59 57//283 55//60
f 58//62 59//62 57//62
f 61//63 59//284 58//64
f 62//66 63//285 61//67
f 50//69 63//69 62//69
f 65//70 66//70 67//70
f 67//71 66//286 68//72
f 68//74 70//287 71//75
f 71//77 70//77 72//77
f 73//78 72//288 74//79
f 74//81 76//289 77//82
f 77//84 76//84 78//84
f 81//85 65//290 64//86
f 79//88 78//291 81//89
f 82//91 83//292 84//92
f 84//94 86//293 87//95
f 88//97 89//97 83//97
f 91//98 89//294 88//99
f 92//101 93//295 91//102
f 94//104 95//104 93//104
f 97//105 95//296 94//106
f 98//108 99//297 97//109
f 86//111 99//111 98//111
f 101//112 102//112 103//112
f 103//113 102//298 104//114
f 104//116 106//299 107//117
f 107//119 106//119 108//119
f 109//120 108//300 110//121
f 110//123 112//301 113//124
f 113//126 112//126 114//126
f 117//127 101//302 100//128
f 115//130 114//303 117//131
f 16//133 18//304 48//134
f 48//136 18//305 1//137
f 14//139 16//139 47//139
f 55//140 12//306 14//141
f 10//143 12//307 55//144
f 59//146 8//146 10//146
f 61//147 6//308 8//148
f 63//150 4//309 6//151
f 50//153 1//153 4//153
f 65//154 51//154 62//154
f 66//155 62//310 60//156
f 68//158 60//311 58//159
f 70//161 58//161 56//161
f 56//162 54//312 74//163
f 74//165 54//313 52//166
f 52//168 46//168 78//168
f 81//169 49//314 51//170
f 46//172 49//315 81//173
f 79//175 80//316 84//176
f 84//178 80//317 64//179
f 77//181 79//181 83//181
f 91//182 75//318 77//183
f 73//185 75//319 91//186
f 95//188 71//188 73//188
f 97//189 69//320 71//190
f 99//192 67//321 69//193
f 86//195 64//195 67//195
f 101//196 87//196 98//196
f 102//197 98//322 96//198
f 104//200 96//323 94//201
f 106//203 94//203 92//203
f 92//204 90//324 110//205
f 110//207 90//325 88//208
f 88//210 82//210 114//210
f 117//211 85//326 87//212
f 82//214 85//327 117//215
f 115//217 116//328 30//218
f 30//220 116//329 100//221
f 113//223 115//223 29//223
f 37//224 111//330 113//225
f 109//227 111//331 37//228
f 41//230 107//230 109//230
f 43//231 105//332 107//232
f 45//234 103//333 105//235
f 32//237 100//237 103//237
f 19//238 33//238 44//238
f 44//239 42//334 21//240
f 21//242 42//335 40//243
f 22//245 40//336 38//246
f 38//248 36//337 24//249
f 36//251 34//338 25//252
f 34//254 28//254 26//254
f 27//255 31//339 33//256
f 28//258 31//340 27//259
usemtl Bark
f 119//341 121//341 118//341
f 120//342 123//342 121//342
f 122//343 125//343 123//343
f 125//344 126//344 127//344
f 127//345 128//345 129//345
f 129//346 130//346 131//346
f 130//347 133//347 131//347
f 119//18 128//18 124//18
f 135//348 119//348 118//348
f 133//349 134//349 135//349
f 137//350 139//350 141//350
f 133//351 144//351 143//351
f 135//352 136//352 144//352
f 131//353 143//353 142//353
f 129//354 142//354 141//354
f 127//355 141//355 140//355
f 125//356 140//356 139//356
f 123//357 139//357 138//357
f 137//358 123//358 138//358
f 118//359 137//359 136//359
f 119//341 120//341 121//341
f 120//342 122//342 123//342
f 122//343 124//343 125//343
f 125//344 124//344 126//344
f 127//345 126//345 128//345
f 129//346 128//346 130//346
f 130//347 132//347 133//347
f 122//18 120//18 124//18
f 120//18 119//18 124//18
f 119//18 134//18 132//18
f 132//18 130//18 119//18
f 130//18 128//18 119//18
f 128//18 126//18 124//18
f 135//348 134//348 119//348
f 133//349 132//349 134//349
f 144//350 136//350 143//350
f 136//350 137//350 143//350
f 137//350 138//350 139//350
f 139//350 140//350 141//350
f 141//350 142//350 137//350
f 142//350 143//350 137//350
f 133//351 135//351 144//351
f 135//352 118//352 136//352
f 131//353 133//353 143//353
f 129//354 131//354 142//354
f 127//355 129//355 141//355
f 125//356 127//356 140//356
f 123//357 125//357 139//357
f 137//358 121//358 123//358
f 118//359 121//359 137//359
